<mxfile host="app.diagrams.net" modified="2020-07-27T20:27:28.165Z" agent="5.0 (Macintosh; Intel Mac OS X 10_14_6) AppleWebKit/537.36 (KHTML, like Gecko) Chrome/84.0.4147.89 Safari/537.36" etag="TO5N59gNOsFL-XePdGfL" version="13.5.3" type="github">
  <diagram id="za6T8bdp1umeZhR6JhmG" name="Page-1">
    <mxGraphModel dx="2926" dy="423" grid="1" gridSize="10" guides="1" tooltips="1" connect="1" arrows="1" fold="1" page="1" pageScale="1" pageWidth="850" pageHeight="1100" math="0" shadow="0">
      <root>
        <mxCell id="0" />
        <mxCell id="1" parent="0" />
        <mxCell id="VMkP9JMboqERa2FFUsHm-30" value="" style="whiteSpace=wrap;html=1;aspect=fixed;dashed=1;" vertex="1" parent="1">
          <mxGeometry x="-1400" y="207.51" width="410" height="410" as="geometry" />
        </mxCell>
        <mxCell id="VMkP9JMboqERa2FFUsHm-56" value="Access Portal" style="edgeStyle=orthogonalEdgeStyle;rounded=0;orthogonalLoop=1;jettySize=auto;html=1;entryX=0;entryY=0.5;entryDx=0;entryDy=0;startArrow=none;startFill=0;fontSize=14;" edge="1" parent="1" source="VMkP9JMboqERa2FFUsHm-1" target="VMkP9JMboqERa2FFUsHm-30">
          <mxGeometry relative="1" as="geometry" />
        </mxCell>
        <mxCell id="VMkP9JMboqERa2FFUsHm-1" value="Users" style="html=1;verticalLabelPosition=bottom;align=center;labelBackgroundColor=#ffffff;verticalAlign=top;strokeWidth=2;strokeColor=#0080F0;shadow=0;dashed=0;shape=mxgraph.ios7.icons.user;" vertex="1" parent="1">
          <mxGeometry x="-1610" y="375" width="70" height="70" as="geometry" />
        </mxCell>
        <mxCell id="VMkP9JMboqERa2FFUsHm-6" value="" style="whiteSpace=wrap;html=1;aspect=fixed;dashed=1;" vertex="1" parent="1">
          <mxGeometry x="-860" y="207.5" width="410" height="410" as="geometry" />
        </mxCell>
        <mxCell id="VMkP9JMboqERa2FFUsHm-18" style="edgeStyle=orthogonalEdgeStyle;rounded=0;orthogonalLoop=1;jettySize=auto;html=1;startArrow=classic;startFill=1;" edge="1" parent="1" source="VMkP9JMboqERa2FFUsHm-8" target="VMkP9JMboqERa2FFUsHm-15">
          <mxGeometry relative="1" as="geometry" />
        </mxCell>
        <mxCell id="VMkP9JMboqERa2FFUsHm-8" value="&lt;br&gt;User Authentication API" style="rounded=0;whiteSpace=wrap;html=1;" vertex="1" parent="1">
          <mxGeometry x="-820" y="280" width="120" height="60" as="geometry" />
        </mxCell>
        <mxCell id="VMkP9JMboqERa2FFUsHm-37" style="edgeStyle=orthogonalEdgeStyle;rounded=0;orthogonalLoop=1;jettySize=auto;html=1;exitX=1;exitY=0.5;exitDx=0;exitDy=0;entryX=0;entryY=0.5;entryDx=0;entryDy=0;entryPerimeter=0;startArrow=classic;startFill=1;" edge="1" parent="1" source="VMkP9JMboqERa2FFUsHm-9" target="VMkP9JMboqERa2FFUsHm-26">
          <mxGeometry relative="1" as="geometry" />
        </mxCell>
        <mxCell id="VMkP9JMboqERa2FFUsHm-9" value="Search API" style="rounded=0;whiteSpace=wrap;html=1;" vertex="1" parent="1">
          <mxGeometry x="-820" y="365" width="120" height="60" as="geometry" />
        </mxCell>
        <mxCell id="VMkP9JMboqERa2FFUsHm-22" style="edgeStyle=orthogonalEdgeStyle;rounded=0;orthogonalLoop=1;jettySize=auto;html=1;exitX=1;exitY=0.5;exitDx=0;exitDy=0;entryX=0;entryY=0.5;entryDx=0;entryDy=0;entryPerimeter=0;startArrow=classic;startFill=1;" edge="1" parent="1" source="VMkP9JMboqERa2FFUsHm-10" target="VMkP9JMboqERa2FFUsHm-17">
          <mxGeometry relative="1" as="geometry" />
        </mxCell>
        <mxCell id="VMkP9JMboqERa2FFUsHm-10" value="MetaGrid APIs (user accounts, cart)&amp;nbsp;" style="rounded=0;whiteSpace=wrap;html=1;" vertex="1" parent="1">
          <mxGeometry x="-820" y="455" width="120" height="60" as="geometry" />
        </mxCell>
        <mxCell id="VMkP9JMboqERa2FFUsHm-11" value="&lt;b style=&quot;font-size: 14px;&quot;&gt;CLIENT&lt;/b&gt;" style="text;html=1;strokeColor=none;fillColor=none;align=center;verticalAlign=middle;whiteSpace=wrap;rounded=0;fontSize=14;" vertex="1" parent="1">
          <mxGeometry x="-1230" y="575" width="40" height="20" as="geometry" />
        </mxCell>
        <mxCell id="VMkP9JMboqERa2FFUsHm-12" value="&lt;b&gt;&lt;font style=&quot;font-size: 14px&quot;&gt;SERVER&lt;/font&gt;&lt;/b&gt;" style="text;html=1;strokeColor=none;fillColor=none;align=center;verticalAlign=middle;whiteSpace=wrap;rounded=0;" vertex="1" parent="1">
          <mxGeometry x="-690" y="575" width="40" height="20" as="geometry" />
        </mxCell>
        <mxCell id="VMkP9JMboqERa2FFUsHm-15" value="Database" style="strokeWidth=2;html=1;shape=mxgraph.flowchart.database;whiteSpace=wrap;" vertex="1" parent="1">
          <mxGeometry x="-570" y="280" width="60" height="60" as="geometry" />
        </mxCell>
        <mxCell id="VMkP9JMboqERa2FFUsHm-17" value="Database" style="strokeWidth=2;html=1;shape=mxgraph.flowchart.database;whiteSpace=wrap;" vertex="1" parent="1">
          <mxGeometry x="-570" y="455" width="60" height="60" as="geometry" />
        </mxCell>
        <mxCell id="VMkP9JMboqERa2FFUsHm-26" value="" style="html=1;aspect=fixed;strokeColor=none;shadow=0;align=center;verticalAlign=top;fillColor=#3B8DF1;shape=mxgraph.gcp2.search_api" vertex="1" parent="1">
          <mxGeometry x="-560" y="375" width="40" height="40" as="geometry" />
        </mxCell>
        <mxCell id="VMkP9JMboqERa2FFUsHm-27" value="Search Server" style="text;html=1;strokeColor=none;fillColor=none;align=center;verticalAlign=middle;whiteSpace=wrap;rounded=0;" vertex="1" parent="1">
          <mxGeometry x="-590" y="423.88" width="100" height="20" as="geometry" />
        </mxCell>
        <mxCell id="VMkP9JMboqERa2FFUsHm-28" value="" style="aspect=fixed;perimeter=ellipsePerimeter;html=1;align=center;shadow=0;dashed=0;spacingTop=3;image;image=img/lib/active_directory/database_server.svg;" vertex="1" parent="1">
          <mxGeometry x="-631" y="550" width="41" height="50" as="geometry" />
        </mxCell>
        <mxCell id="VMkP9JMboqERa2FFUsHm-31" value="" style="html=1;verticalLabelPosition=bottom;align=center;labelBackgroundColor=#ffffff;verticalAlign=top;strokeWidth=2;strokeColor=#0080F0;shadow=0;dashed=0;shape=mxgraph.ios7.icons.monitor;" vertex="1" parent="1">
          <mxGeometry x="-1170" y="575.5" width="30" height="19.5" as="geometry" />
        </mxCell>
        <mxCell id="VMkP9JMboqERa2FFUsHm-36" value="Browser" style="pointerEvents=1;shadow=0;dashed=0;html=1;strokeColor=none;fillColor=#434445;aspect=fixed;labelPosition=center;verticalLabelPosition=bottom;verticalAlign=top;align=center;outlineConnect=0;shape=mxgraph.vvd.web_browser;" vertex="1" parent="1">
          <mxGeometry x="-1276.73" y="330.23" width="175.73" height="124.77" as="geometry" />
        </mxCell>
        <mxCell id="VMkP9JMboqERa2FFUsHm-48" value="Web Framework (React), HTML, CSS, JavaScript" style="text;html=1;strokeColor=none;fillColor=none;align=center;verticalAlign=middle;whiteSpace=wrap;rounded=0;" vertex="1" parent="1">
          <mxGeometry x="-1260" y="480" width="169" height="20" as="geometry" />
        </mxCell>
        <mxCell id="VMkP9JMboqERa2FFUsHm-59" value="&lt;font style=&quot;font-size: 18px&quot;&gt;Software Architecture Diagram&lt;/font&gt;" style="text;html=1;strokeColor=none;fillColor=none;align=center;verticalAlign=middle;whiteSpace=wrap;rounded=0;dashed=1;fontSize=14;" vertex="1" parent="1">
          <mxGeometry x="-1250" y="130" width="590" height="20" as="geometry" />
        </mxCell>
        <mxCell id="VMkP9JMboqERa2FFUsHm-61" value="" style="endArrow=none;html=1;exitX=0.002;exitY=0.609;exitDx=0;exitDy=0;exitPerimeter=0;startArrow=classic;startFill=1;endFill=0;" edge="1" parent="1">
          <mxGeometry width="50" height="50" relative="1" as="geometry">
            <mxPoint x="-859.9999999999999" y="365.1899999999998" as="sourcePoint" />
            <mxPoint x="-990.82" y="365" as="targetPoint" />
          </mxGeometry>
        </mxCell>
        <mxCell id="VMkP9JMboqERa2FFUsHm-62" value="Request" style="edgeLabel;html=1;align=center;verticalAlign=middle;resizable=0;points=[];fontSize=14;" vertex="1" connectable="0" parent="VMkP9JMboqERa2FFUsHm-61">
          <mxGeometry x="0.1285" y="2" relative="1" as="geometry">
            <mxPoint x="3.18" y="-4.08" as="offset" />
          </mxGeometry>
        </mxCell>
        <mxCell id="VMkP9JMboqERa2FFUsHm-63" value="" style="endArrow=classic;html=1;exitX=0.002;exitY=0.609;exitDx=0;exitDy=0;exitPerimeter=0;" edge="1" parent="1">
          <mxGeometry width="50" height="50" relative="1" as="geometry">
            <mxPoint x="-859.9999999999999" y="445.1899999999998" as="sourcePoint" />
            <mxPoint x="-990.82" y="445" as="targetPoint" />
          </mxGeometry>
        </mxCell>
        <mxCell id="VMkP9JMboqERa2FFUsHm-64" value="Response" style="edgeLabel;html=1;align=center;verticalAlign=middle;resizable=0;points=[];fontSize=14;" vertex="1" connectable="0" parent="VMkP9JMboqERa2FFUsHm-63">
          <mxGeometry x="0.1285" y="2" relative="1" as="geometry">
            <mxPoint x="3.18" y="-4.08" as="offset" />
          </mxGeometry>
        </mxCell>
        <mxCell id="VMkP9JMboqERa2FFUsHm-65" value="&lt;b style=&quot;font-size: 14px&quot;&gt;HTTP&lt;/b&gt;" style="text;html=1;strokeColor=none;fillColor=none;align=center;verticalAlign=middle;whiteSpace=wrap;rounded=0;fontSize=14;" vertex="1" parent="1">
          <mxGeometry x="-940" y="575" width="40" height="20" as="geometry" />
        </mxCell>
      </root>
    </mxGraphModel>
  </diagram>
</mxfile>
